<?xml version="1.0" encoding="iso-8859-1"?>
<!-- Generator: Adobe Illustrator 19.0.0, SVG Export Plug-In . SVG Version: 6.00 Build 0)  -->
<svg version="1.1" id="Capa_1" xmlns="http://www.w3.org/2000/svg" xmlns:xlink="http://www.w3.org/1999/xlink" x="0px" y="0px"
	 viewBox="0 0 512.001 512.001" style="enable-background:new 0 0 512.001 512.001;" xml:space="preserve">
<path style="fill:#CC9A5E;" d="M215.181,313.227c0-74.357,55.949-135.886,127.958-144.716c-6.126-22.9-17.782-44.275-34.282-61.904
	c-4.033-4.308-2.96-11.257,2.164-14.186l3.915-2.238c8.019-4.584,10.83-14.896,6.246-22.916l-1.355-2.37
	c-4.582-8.014-15.272-11.53-23.273-6.925c-5.2,2.992-11.681-0.779-11.656-6.772c0-9.237-7.557-16.826-16.793-16.867l-3.425-0.015
	c-9.237-0.04-16.826,7.484-16.867,16.721l-0.026,6.107c-0.023,5.341-5.037,9.188-10.228,7.936
	c-63.102-15.217-131.254,13.763-162.533,73.762L25.06,234.688c-31.836,61.064-15.457,135.044,35.213,177.75
	c3.194,2.692,2.722,7.742-0.904,9.814l-6.976,3.988c-7.384,4.221-9.973,13.716-5.752,21.101l1.598,2.797
	c4.182,7.317,13.741,10.14,20.978,5.824c4.783-2.852,10.802,0.584,10.835,6.097c0.051,8.553,6.395,15.571,14.948,15.608l3.671,0.016
	c8.505,0.037,15.496-6.892,15.532-15.397l0.065-15.107c0.013-3.1,2.907-5.357,5.925-4.649
	c46.504,10.905,95.628-2.144,130.657-33.851C228.64,383.082,215.181,349.697,215.181,313.227z"/>
<g>
	<path style="fill:#B78855;" d="M68.284,450.137l-1.598-2.797c-4.22-7.384-1.632-16.88,5.752-21.101l6.976-3.988
		c3.626-2.072,4.098-7.122,0.904-9.814c-50.672-42.705-67.05-116.687-35.215-177.751l49.964-95.842
		c24.105-46.239,70.112-74.047,118.827-77.41c-55.798-3.891-111.476,24.862-138.871,77.41l-49.964,95.842
		C-6.776,295.752,9.603,369.732,60.274,412.437c3.194,2.692,2.722,7.742-0.904,9.814l-6.976,3.988
		c-7.384,4.221-9.973,13.716-5.752,21.101l1.598,2.797c4.182,7.317,13.741,10.14,20.978,5.824c1.096-0.653,2.257-0.963,3.396-1.007
		C70.891,453.694,69.394,452.079,68.284,450.137z"/>
	<path style="fill:#B78855;" d="M100.098,462.058c-0.033-5.513-6.052-8.949-10.835-6.097c-3.354,2-7.204,2.45-10.788,1.648
		c0.968,1.192,1.57,2.718,1.581,4.45c0.051,8.553,6.395,15.571,14.948,15.608l3.671,0.016c3.065,0.013,5.925-0.888,8.341-2.431
		C102.813,472.478,100.131,467.597,100.098,462.058z"/>
	<path style="fill:#B78855;" d="M360.99,166.915c-80.676,0-146.311,65.635-146.311,146.312c0,80.676,65.635,146.31,146.311,146.31
		s146.311-65.634,146.311-146.31C507.301,232.55,441.666,166.915,360.99,166.915z"/>
</g>
<path style="fill:#A3764A;" d="M234.456,313.227c0-77.352,60.341-140.868,136.423-145.97c-3.269-0.219-6.564-0.342-9.888-0.342
	c-80.676,0-146.311,65.635-146.311,146.312c0,80.676,65.635,146.31,146.311,146.31c3.323,0,6.618-0.122,9.888-0.342
	C294.797,454.093,234.456,390.579,234.456,313.227z"/>
<path style="fill:#9AB748;" d="M360.99,192.825c-66.39,0-120.402,54.012-120.402,120.403c0,66.39,54.012,120.401,120.402,120.401
	s120.402-54.012,120.402-120.401C481.392,246.836,427.38,192.825,360.99,192.825z"/>
<path style="fill:#8CA532;" d="M261.367,313.227c0-62.89,48.469-114.663,110.012-119.949c-3.425-0.295-6.889-0.453-10.388-0.453
	c-66.39,0-120.402,54.012-120.402,120.403c0,66.39,54.012,120.401,120.402,120.401c3.501,0,6.963-0.159,10.388-0.453
	C309.836,427.889,261.367,376.116,261.367,313.227z"/>
<ellipse style="fill:#CAD88F;" cx="360.991" cy="313.229" rx="36.853" ry="52.714"/>
<path style="fill:#BAD362;" d="M345.174,313.227c0-23.884,11.108-44.045,26.334-50.522c-3.334-1.418-6.862-2.191-10.519-2.191
	c-20.353,0-36.853,23.601-36.853,52.714c0,29.113,16.5,52.714,36.853,52.714c3.656,0,7.185-0.773,10.519-2.191
	C356.282,357.272,345.174,337.11,345.174,313.227z"/>
<path d="M421.865,265.425l-25.09,14.485c-1.419-2.918-3.025-5.689-4.825-8.265c-0.644-0.922-1.313-1.8-1.991-2.658l12.049-20.87
	c2.076-3.595,0.844-8.192-2.751-10.267c-3.597-2.074-8.193-0.845-10.267,2.751L378.597,258.6c-3.582-2.26-7.389-3.86-11.351-4.752
	v-25.717c0-4.152-3.364-7.516-7.516-7.516c-4.152,0-7.516,3.364-7.516,7.516v25.718c-4.124,0.929-8.084,2.618-11.793,5.027
	l-11.79-20.421c-2.074-3.596-6.673-4.824-10.267-2.751c-3.595,2.075-4.826,6.672-2.751,10.267l13.538,23.45
	c-0.558,0.721-1.105,1.461-1.64,2.226c-1.857,2.656-3.509,5.516-4.959,8.535l-9.609-5.548c-3.598-2.076-8.193-0.845-10.267,2.751
	c-2.076,3.595-0.844,8.192,2.751,10.267l12.072,6.97c-0.956,4.056-1.606,8.262-1.918,12.565H287.75
	c-4.152,0-7.516,3.364-7.516,7.516c0,4.152,3.364,7.516,7.516,7.516h28.102c0.455,4.187,1.234,8.266,2.305,12.187l-18.034,10.413
	c-3.595,2.076-4.826,6.672-2.751,10.267c2.079,3.599,6.676,4.824,10.267,2.751l16.07-9.278c1.158,2.182,2.423,4.273,3.804,6.249
	c0.847,1.211,1.732,2.351,2.637,3.451l-14.271,24.719c-2.076,3.595-0.844,8.192,2.751,10.267c3.6,2.076,8.195,0.841,10.267-2.751
	l12.78-22.136c3.342,1.997,6.875,3.423,10.537,4.248v24.162c0,4.152,3.364,7.516,7.516,7.516c4.152,0,7.516-3.364,7.516-7.516
	v-24.162c3.5-0.789,6.885-2.114,10.095-3.974l12.532,21.708c1.392,2.411,3.918,3.759,6.516,3.759c1.275,0,2.569-0.325,3.751-1.008
	c3.595-2.076,4.826-6.672,2.751-10.267l-13.932-24.132c1.032-1.227,2.032-2.515,2.989-3.883c1.325-1.895,2.539-3.899,3.66-5.985
	l10.306,5.95c3.6,2.076,8.195,0.841,10.267-2.751c2.076-3.595,0.844-8.192-2.751-10.267l-12.207-7.048
	c1.114-4.014,1.92-8.194,2.386-12.487h18.488c4.152,0,7.516-3.364,7.516-7.516c0-4.152-3.364-7.516-7.516-7.516h-18.219
	c-0.319-4.413-0.992-8.722-1.989-12.872l27.491-15.872c3.595-2.076,4.826-6.672,2.751-10.267
	C430.058,264.58,425.459,263.351,421.865,265.425z M389.063,313.523c-0.061,0.386-0.101,0.778-0.101,1.181
	c0,0.313,0.025,0.618,0.062,0.92c-0.841,23.437-13.911,42.801-29.292,42.801c-15.901,0-29.335-20.698-29.335-45.198
	c0-24.5,13.434-45.198,29.335-45.198c11.136,0,21.054,10.156,26.004,24.652c0.086,0.329,0.195,0.653,0.329,0.973
	c1.917,5.96,3.004,12.611,3.004,19.571C389.068,313.327,389.063,313.424,389.063,313.523z"/>
<path d="M487.649,313.227c0-70.535-57.384-127.919-127.919-127.919c-70.534,0-127.918,57.384-127.918,127.919
	c0,70.534,57.384,127.917,127.918,127.917C430.265,441.143,487.649,383.76,487.649,313.227z M359.731,426.111
	c-62.245,0-112.885-50.64-112.885-112.884s50.64-112.886,112.885-112.886s112.886,50.641,112.886,112.886
	C472.617,375.471,421.976,426.111,359.731,426.111z"/>
<path d="M378.168,465.44c33.781-4.069,65.718-19.642,89.927-43.851c24.209-24.208,39.782-56.145,43.851-89.927
	c0.496-4.121-2.443-7.865-6.564-8.361c-4.117-0.486-7.864,2.443-8.361,6.564c-7.636,63.401-57.249,113.015-120.65,120.65
	c-4.121,0.496-7.06,4.239-6.564,8.361C370.299,462.966,374.007,465.935,378.168,465.44z"/>
<path d="M313.492,98.946c4.315-2.466,12.33-6.112,15.286-16.956c2.259-8.291,0.072-14.25-3.686-20.822
	c-6.604-11.554-21.863-16.434-33.549-9.709c-0.178,0.098-0.39,0.008-0.39-0.259c0-13.386-10.891-24.325-24.279-24.383
	c-0.166-0.001-3.367-0.015-3.531-0.015c-13.356,0-24.251,10.836-24.31,24.204l-0.026,6.108c0,0.484-0.47,0.779-0.95,0.66
	c-66.6-16.063-138.213,14.782-170.96,77.595l-49.963,95.842c-33.03,63.355-16.742,140.316,35.397,185.57l-5.126,2.931
	c-11.001,6.288-14.836,20.354-8.547,31.357c1.676,2.932,5.42,10.948,15.844,13.688c5.698,1.498,11.564,0.772,16.589-2.042
	c0.38,12.594,10.118,22.412,22.421,22.466c0.16,0.001,3.614,0.016,3.773,0.016c12.624-0.001,22.924-10.244,22.98-22.882l0.05-11.736
	c45.341,9.581,92.573-2.053,128.402-31.421c23.785,24.903,55.959,41.896,92.379,46.282c4.16,0.493,7.868-2.473,8.361-6.564
	c0.496-4.121-2.443-7.865-6.564-8.361c-33.221-4.002-64.508-19.895-87.822-46.765c-65.864-75.897-31.107-195.995,66.807-223.606
	c81.642-23.128,164.813,32.326,174.944,116.443c0.497,4.122,4.256,7.054,8.361,6.564c4.121-0.496,7.06-4.239,6.564-8.361
	c-9.787-81.264-82.16-141.014-164.61-134.387c-6.877-21.974-18.627-42.241-34.25-58.933
	C312.37,100.707,312.569,99.474,313.492,98.946z M302.109,111.744c13.487,14.409,23.788,31.781,30.084,50.639
	c-113.926,20.748-163.677,155.431-93.114,245.42c-33.055,26.933-76.787,37.174-118.426,27.408
	c-3.693-0.866-7.507-0.018-10.475,2.324c-2.959,2.335-4.666,5.837-4.683,9.61l-0.064,15.106c-0.018,4.318-3.515,7.914-7.984,7.914
	l-3.671-0.016c-4.228-0.019-7.437-3.517-7.464-8.136c-0.067-11.357-12.444-18.332-22.2-12.508c-1.64,0.976-3.624,1.232-5.589,0.715
	c-3.829-1.006-4.967-3.729-6.613-6.608c-2.175-3.806-0.849-8.672,2.956-10.846l6.976-3.988c8.161-4.665,9.189-16.041,2.017-22.087
	C15.047,365.552,1.002,294.676,30.465,238.161l49.963-95.842c29.202-56.012,92.573-84.765,154.107-69.928
	c9.924,2.395,19.463-5.037,19.506-15.211l0.026-6.107c0.022-5.102,4.18-9.237,9.278-9.237c0.064,0,3.4,0.014,3.466,0.015
	c5.133,0.022,9.31,4.217,9.31,9.318c-0.05,11.791,12.69,19.208,22.921,13.319c4.311-2.481,10.436-0.343,13,4.141l1.355,2.37
	c2.526,4.422,0.969,10.132-3.451,12.659l-3.912,2.237C296.697,91.229,294.755,103.885,302.109,111.744z"/>
<path d="M359.732,281.975c-4.152,0-7.516,3.364-7.516,7.516v45.348c0,4.152,3.364,7.516,7.516,7.516
	c4.152,0,7.516-3.364,7.516-7.516v-45.348C367.248,285.339,363.884,281.975,359.732,281.975z"/>
<g>
</g>
<g>
</g>
<g>
</g>
<g>
</g>
<g>
</g>
<g>
</g>
<g>
</g>
<g>
</g>
<g>
</g>
<g>
</g>
<g>
</g>
<g>
</g>
<g>
</g>
<g>
</g>
<g>
</g>
</svg>
